<svg version="1" xmlns="http://www.w3.org/2000/svg" width="128" height="128" viewBox="0 0 96.000000 96.000000"><path d="M28.6 5.9c-3.4 3.7-3.1 8.2 1.3 22C32.1 35 34 41 34 41.2c0 .1-1.8.3-3.9.3-5.6.1-8.3 3.5-7.6 9.2.4 3.4.2 4.3-1.1 4.3-.9 0-2.9 1.3-4.5 2.9-3.9 3.9-4 10.5-.4 17.8 5 9.9 13.9 15.3 26.2 15.8 18.7.7 32-12.4 32.8-32.5.5-9.1-1.1-13.2-5.9-16.1l-3.4-2 3.9-11.7C72.2 22.8 74 16 74 14c0-7.9-6.5-10.8-11.3-5-2.8 3.2-7.3 12.5-10.2 20.7-1.1 2.9-2.1 5.3-2.4 5.3-.4 0-1.6-3.2-2.8-7-2.7-8.2-7.8-19.1-10.5-22-2.4-2.5-6-2.6-8.2-.1z"/></svg>